<?xml version="1.0" encoding="UTF-8" standalone="no"?><svg xmlns="http://www.w3.org/2000/svg" width="256" height="256" version="1"><path fill="#9ca1a6" d="M128.3 0c-.6 0-1.8.8-2.7 1.4-1.6 1.3-5 7.5-10.3 19.3L108 36l-8.9 19-8.5 18A3133 3133 0 0 0 77 102.7L68.5 120c-15.6 33.3-14.9 31-17.3 43.6a84.8 84.8 0 0 0 2 37.5 89 89 0 0 0 5.1 11.6 75.7 75.7 0 0 0 35 34.9 89 89 0 0 0 11.5 5 87.2 87.2 0 0 0 47 0c5-1 20.6-9.6 26.5-14.4 3.3-2.7 8.3-7.8 11.1-11.3 5-6.1 12.8-20.6 14-25.8a83.6 83.6 0 0 0 .1-46.5l-1-3.5c-.6-1.4-2.6-6.1-4.7-10.5l-8.3-17.5-8.5-18-7.2-15.5a6753 6753 0 0 0-16-34c-9.4-20-11.4-24-11.5-24.5l-3.4-7.5C133.6 3.7 131.3 0 128.3 0zm-6.8 129.4h.6c1.8.3 2.4 1.8 4.3 11.8a3713 3713 0 0 1 11 56.7c.3 2.4 1.1 7.4 1.5 7.4.3 0 4.2-8 7.5-15.7 3.5-7 7-13.7 8-14.5 1.5-1 5.7-.5 15.3-.5 13.7 0 15.2 0 15.2 4 0 3.9-1.7 4.2-14 4.3h-12.2l-10 21.3c-3.4 7-6.2 12.7-8.2 16.2-2 3.5-3.6 5.2-4 5.2-2 0-3.3-3.1-6-18l-6.6-34-4.7-24.4c-.2-1-4.4 7.3-8 14.7-4.5 8.3-9 17.8-9.6 18.4-.7 1-6.5.7-16.3.7-11 0-13-.7-12.9-4.5 0-3.4 1.7-4.2 12.4-4.2h12l9-18 11.4-22c2-3.5 3-4.8 4.3-5z"/></svg>