<?xml version="1.0" encoding="UTF-8" standalone="no"?><svg xmlns="http://www.w3.org/2000/svg" xmlns:xlink="http://www.w3.org/1999/xlink" width="257" height="257" version="1"><defs><linearGradient id="c"><stop offset="0" stop-opacity="0"/><stop offset=".2"/><stop offset=".8"/><stop offset="1" stop-opacity="0"/></linearGradient><linearGradient id="d"><stop offset="0" stop-color="#3457ae" stop-opacity="0"/><stop offset=".2" stop-color="#3457ae"/><stop offset=".8" stop-color="#3457ae"/><stop offset="1" stop-color="#3457ae" stop-opacity="0"/></linearGradient><linearGradient id="b"><stop offset="0" stop-opacity=".5"/><stop offset="1" stop-opacity=".2"/></linearGradient><linearGradient id="a"><stop offset="0" stop-color="#d0deec"/><stop offset="1" stop-color="#4b7fb4"/></linearGradient><linearGradient id="e" x1="128.8" x2="129.7" y2="255.8" gradientTransform="translate(.9 .6)" gradientUnits="userSpaceOnUse" xlink:href="#a"/><linearGradient id="f" x1="75.3" x2="76" y1="255.6" y2="-.2" gradientTransform="translate(.9 .6)" gradientUnits="userSpaceOnUse" xlink:href="#b"/><linearGradient id="h" x1="51.6" x2="205.4" y1="169.4" y2="169.2" gradientTransform="translate(.9 .6)" gradientUnits="userSpaceOnUse" xlink:href="#c"/><linearGradient id="g" x1="51.6" x2="205.2" y1="178.4" y2="178.4" gradientTransform="translate(.9 .6)" gradientUnits="userSpaceOnUse" xlink:href="#d"/></defs><path fill="url(#e)" stroke="url(#f)" d="M126.7 1.8A80 80 0 0 0 116.4 21l-7.3 15.5-8.9 19-8.5 18A3135 3135 0 0 0 77.9 103l-8.3 17.5c-15.7 33.3-14.9 31.1-17.3 43.5a84.8 84.8 0 0 0 2 37.5 89 89 0 0 0 5.1 11.6A75.7 75.7 0 0 0 94.3 248a89 89 0 0 0 11.6 5 87.2 87.2 0 0 0 47 0c5-1 20.6-9.6 26.5-14.4 3.3-2.7 8.3-7.8 11.1-11.3 4.9-6.1 12.8-20.6 14-25.8a83.6 83.6 0 0 0 .1-46.5l-1.1-3.5c-.5-1.4-2.5-6.1-4.6-10.5l-8.3-17.5-8.5-18-7.2-15.5-16-34-11.5-24.4L144 24C134.7 4 132.4.6 129.4.6c-.6 0-1.8.6-2.7 1.2z"/><path fill="url(#g)" stroke="url(#h)" stroke-width=".5" d="M118.3 134.8l-11.4 22-9 17.9h-48c-10.7 0-12.4.8-12.4 4.2 0 3.8 1.8 4.5 13 4.5 9.7 0 51.5.2 52.2-.7.6-.6 5.1-10.1 9.6-18.4a76.2 76.2 0 0 1 8-14.7l4.7 24.5 6.5 34c2.8 14.8 4 17.9 6 17.9.5 0 2.1-1.7 4.1-5.2 2-3.5 4.8-9.2 8.2-16.2l10-21.2 50-.1c12.5-.1 14.2-.4 14.2-4.3 0-4-1.5-4-15.2-4-9.6 0-51.8-.5-53.3.5-1.1.8-4.5 7.5-8 14.5-3.3 7.8-7.2 15.7-7.5 15.7-.4 0-1.2-5-1.6-7.4-.6-3.7-3.2-17.3-10.9-56.7-1.9-10-2.5-11.5-4.3-11.8-1.6-.2-2.7.9-4.9 5z" paint-order="stroke fill markers"/></svg>